<svg xmlns="http://www.w3.org/2000/svg" width="213.199" height="61.182" viewBox="0 0 213.199 61.182"><path d="M213.2,55.049a6.132,6.132,0,0,1-6.139,6.133H6.147A6.141,6.141,0,0,1,0,55.049V6.141A6.149,6.149,0,0,1,6.147,0H207.058A6.139,6.139,0,0,1,213.2,6.141Z" fill="#fff"/><path d="M39.6,23.289A9.283,9.283,0,0,1,44.018,15.5a9.507,9.507,0,0,0-7.488-4.048c-3.15-.332-6.205,1.885-7.81,1.885-1.636,0-4.107-1.853-6.77-1.8a9.969,9.969,0,0,0-8.391,5.118c-3.629,6.282-.922,15.513,2.554,20.591,1.739,2.487,3.771,5.263,6.431,5.166,2.6-.107,3.574-1.659,6.714-1.659,3.111,0,4.024,1.659,6.737,1.6,2.793-.045,4.551-2.5,6.229-5.007a20.547,20.547,0,0,0,2.849-5.8A8.973,8.973,0,0,1,39.6,23.289Z" transform="translate(7.221 6.966)"/><path d="M28.215,11.846A9.137,9.137,0,0,0,30.306,5.3a9.307,9.307,0,0,0-6.018,3.113,8.7,8.7,0,0,0-2.146,6.306A7.687,7.687,0,0,0,28.215,11.846Z" transform="translate(13.479 3.232)"/><path d="M55.726,38.639h3.656L52.452,17.213h-4.26l-6.9,21.427h3.56l1.908-6.294h6.962ZM51.275,24.093l1.811,5.595H47.334l1.779-5.595q.7-2.669,1.018-4.036H50.2Q50.99,23.235,51.275,24.093Z" transform="translate(25.192 10.501)" fill-rule="evenodd"/><path d="M66.983,34.789a8.78,8.78,0,0,0,2.13-6.229,8.512,8.512,0,0,0-1.829-5.692,6.108,6.108,0,0,0-9.775.605h-.064l-.192-2.449H54.234q.126,2.608.127,5.086V42.77h3.433V34.632h.064a4.737,4.737,0,0,0,4.387,2.193A6.228,6.228,0,0,0,66.983,34.789Zm-2.4-9.838A6.361,6.361,0,0,1,65.6,28.671a6.576,6.576,0,0,1-1.082,3.943A3.514,3.514,0,0,1,61.5,34.108a3.426,3.426,0,0,1-2.686-1.161A4.128,4.128,0,0,1,57.776,30.1V27.524a4.494,4.494,0,0,1,.159-1.047,3.906,3.906,0,0,1,1.351-2.211,3.57,3.57,0,0,1,2.3-.842A3.514,3.514,0,0,1,64.579,24.951Z" transform="translate(33.086 12.633)" fill-rule="evenodd"/><path d="M77.957,34.789a8.773,8.773,0,0,0,2.132-6.229,8.536,8.536,0,0,0-1.826-5.692,6.109,6.109,0,0,0-9.776.605h-.064l-.192-2.449H65.212q.126,2.608.127,5.086V42.77h3.433V34.632h.064a4.732,4.732,0,0,0,4.386,2.193A6.222,6.222,0,0,0,77.957,34.789Zm-2.4-9.838a6.361,6.361,0,0,1,1.019,3.719,6.576,6.576,0,0,1-1.082,3.943,3.514,3.514,0,0,1-3.019,1.494,3.433,3.433,0,0,1-2.689-1.161,4.141,4.141,0,0,1-1.03-2.847V27.524a4.582,4.582,0,0,1,.159-1.047,3.9,3.9,0,0,1,1.349-2.211,3.574,3.574,0,0,1,2.306-.842A3.51,3.51,0,0,1,75.553,24.951Z" transform="translate(39.783 12.633)" fill-rule="evenodd"/><path d="M91.684,32.664a5.679,5.679,0,0,1-1.893,4.426,8.389,8.389,0,0,1-5.8,1.866,10.161,10.161,0,0,1-5.523-1.327l.791-2.845a9.359,9.359,0,0,0,4.935,1.361,4.666,4.666,0,0,0,3.005-.871,2.844,2.844,0,0,0,1.073-2.328,2.968,2.968,0,0,0-.886-2.184,8.235,8.235,0,0,0-2.94-1.648q-5.6-2.087-5.595-6.11A5.407,5.407,0,0,1,80.809,18.7a7.733,7.733,0,0,1,5.217-1.678,10.344,10.344,0,0,1,4.836,1.012l-.853,2.783a8.39,8.39,0,0,0-4.079-.98,4.128,4.128,0,0,0-2.812.886,2.53,2.53,0,0,0-.853,1.929,2.6,2.6,0,0,0,.978,2.086,11.051,11.051,0,0,0,3.1,1.645A10.519,10.519,0,0,1,90.39,28.97,5.414,5.414,0,0,1,91.684,32.664Z" transform="translate(47.867 10.382)"/><path d="M97.231,24.917H93.468v7.46q0,2.846,1.992,2.845a6.075,6.075,0,0,0,1.516-.158l.095,2.592a7.732,7.732,0,0,1-2.655.378A4.1,4.1,0,0,1,91.253,36.8a6.056,6.056,0,0,1-1.139-4.142V24.913H87.873V22.351h2.242V19.538l3.353-1.012v3.825h3.763Z" transform="translate(53.607 11.302)"/><path d="M107.981,34.471a8.475,8.475,0,0,0,2.035-5.849,8.122,8.122,0,0,0-1.974-5.656,7.056,7.056,0,0,0-5.468-2.257A7.2,7.2,0,0,0,96.965,23a8.392,8.392,0,0,0-2.082,5.88,8.215,8.215,0,0,0,2.019,5.69,6.909,6.909,0,0,0,5.418,2.256A7.266,7.266,0,0,0,107.981,34.471Zm-2.467-9.418a6.949,6.949,0,0,1,.921,3.666,6.975,6.975,0,0,1-.952,3.7,3.508,3.508,0,0,1-6.2.032,6.94,6.94,0,0,1-.921-3.664,7.083,7.083,0,0,1,.921-3.73,3.442,3.442,0,0,1,3.148-1.848A3.391,3.391,0,0,1,105.514,25.054Z" transform="translate(57.884 12.633)" fill-rule="evenodd"/><path d="M114.238,24.026a5.936,5.936,0,0,0-1.077-.095,3.225,3.225,0,0,0-2.782,1.361,5.116,5.116,0,0,0-.853,3.034v8.063h-3.413l.032-10.527q0-2.656-.127-4.837h2.972l.126,2.94h.095a5.26,5.26,0,0,1,1.707-2.434,4.128,4.128,0,0,1,2.468-.823,5.485,5.485,0,0,1,.853.062Z" transform="translate(64.676 12.633)"/><path d="M125.729,29.587a8.052,8.052,0,0,0,.126-1.557,8.356,8.356,0,0,0-1.362-4.862,5.758,5.758,0,0,0-5.057-2.478,6.579,6.579,0,0,0-5.4,2.478,8.851,8.851,0,0,0-1.91,5.817,7.808,7.808,0,0,0,2.05,5.674,7.5,7.5,0,0,0,5.645,2.114,12.882,12.882,0,0,0,5.18-.955l-.538-2.383a11.39,11.39,0,0,1-4.167.731,5.1,5.1,0,0,1-3.368-1.08,4.482,4.482,0,0,1-1.494-3.5Zm-3.832-5.1a4.663,4.663,0,0,1,.667,2.639v0h-7.15a5.123,5.123,0,0,1,1.016-2.669,3.256,3.256,0,0,1,2.732-1.4A3,3,0,0,1,121.9,24.488Z" transform="translate(68.402 12.622)" fill-rule="evenodd"/><path d="M49.5,15.3a5.285,5.285,0,0,0,1.7-4.28,4.86,4.86,0,0,0-1.576-3.89,6.265,6.265,0,0,0-4.17-1.2,18.214,18.214,0,0,0-2.906.219V16.5a20.775,20.775,0,0,0,2.468.126A6.775,6.775,0,0,0,49.5,15.3Zm-1.06-7.067a3.848,3.848,0,0,1,.976,2.827,4.314,4.314,0,0,1-1.056,3.14,3.991,3.991,0,0,1-2.99,1.077,8.909,8.909,0,0,1-1.14-.047V7.354a7.141,7.141,0,0,1,1.359-.109A3.846,3.846,0,0,1,48.442,8.228Z" transform="translate(25.96 3.614)" fill-rule="evenodd"/><path d="M55.567,14.451a4.163,4.163,0,0,0,1-2.874A4.007,4.007,0,0,0,55.6,8.8a3.471,3.471,0,0,0-2.687-1.108,3.546,3.546,0,0,0-2.756,1.124A4.123,4.123,0,0,0,49.133,11.7a4.04,4.04,0,0,0,.99,2.8,3.392,3.392,0,0,0,2.663,1.109A3.569,3.569,0,0,0,55.567,14.451ZM54.355,9.823a3.433,3.433,0,0,1,.452,1.8,3.411,3.411,0,0,1-.469,1.816,1.684,1.684,0,0,1-1.513.924,1.7,1.7,0,0,1-1.531-.908,3.433,3.433,0,0,1-.452-1.8,3.479,3.479,0,0,1,.452-1.832,1.693,1.693,0,0,1,1.547-.908A1.666,1.666,0,0,1,54.355,9.823Z" transform="translate(29.974 4.692)" fill-rule="evenodd"/><path d="M65.682,7.786,63.32,15.335H61.783L60.8,12.057A24.533,24.533,0,0,1,60.2,9.618h-.03a17.86,17.86,0,0,1-.607,2.439l-1.039,3.278H56.966L54.745,7.786H56.47l.853,3.589q.31,1.273.512,2.423h.03q.187-.946.623-2.407l1.071-3.6h1.367l1.027,3.526q.372,1.29.605,2.485h.046a23.8,23.8,0,0,1,.512-2.485l.916-3.526h1.648Z" transform="translate(33.398 4.75)"/><path d="M69.448,15.395H67.77V11.071q0-2-1.521-2a1.514,1.514,0,0,0-1.212.549,1.948,1.948,0,0,0-.466,1.294v4.477H62.893V10q0-.994-.061-2.16h1.475l.078,1.18h.046a2.426,2.426,0,0,1,.87-.911,2.836,2.836,0,0,1,1.521-.424,2.409,2.409,0,0,1,1.757.684,3.322,3.322,0,0,1,.87,2.5Z" transform="translate(38.331 4.69)"/><path d="M70.451,16.647H68.774V5.635h1.677Z" transform="translate(41.956 3.438)"/><path d="M77.794,14.451a4.163,4.163,0,0,0,1-2.874A4.007,4.007,0,0,0,77.826,8.8a3.475,3.475,0,0,0-2.689-1.108,3.545,3.545,0,0,0-2.755,1.124A4.123,4.123,0,0,0,71.36,11.7a4.04,4.04,0,0,0,.99,2.8,3.387,3.387,0,0,0,2.663,1.109A3.571,3.571,0,0,0,77.794,14.451ZM76.58,9.823a3.433,3.433,0,0,1,.452,1.8,3.4,3.4,0,0,1-.469,1.816,1.681,1.681,0,0,1-1.512.924,1.7,1.7,0,0,1-1.531-.908,3.433,3.433,0,0,1-.452-1.8,3.479,3.479,0,0,1,.452-1.832,1.689,1.689,0,0,1,1.547-.908A1.664,1.664,0,0,1,76.58,9.823Z" transform="translate(43.534 4.692)" fill-rule="evenodd"/><path d="M81.863,15.435h1.515a11.855,11.855,0,0,1-.109-1.81v-2.8q0-3.14-2.979-3.14a4.867,4.867,0,0,0-2.6.655l.343,1.108a3.53,3.53,0,0,1,1.979-.562q1.577,0,1.576,1.5v.142a6.042,6.042,0,0,0-3.273.718,2.358,2.358,0,0,0-1.164,2.124,2.156,2.156,0,0,0,.594,1.546,2.288,2.288,0,0,0,1.732.687,2.6,2.6,0,0,0,2.217-1.047h.047Zm-.246-3.8v1.171A1.44,1.44,0,0,1,81.006,14a1.7,1.7,0,0,1-1.032.351,1.18,1.18,0,0,1-.824-.3,1.143,1.143,0,0,1-.324-.89Q78.826,11.587,81.618,11.635Z" transform="translate(47.064 4.692)" fill-rule="evenodd"/><path d="M88.192,16.707h1.5q-.06-.937-.06-2.045V5.635H87.941V9.992h-.032a2.275,2.275,0,0,0-2.138-1.03,3.025,3.025,0,0,0-2.343,1.063,4.4,4.4,0,0,0-.984,2.983,4.2,4.2,0,0,0,.9,2.8,2.857,2.857,0,0,0,2.28,1.077,2.523,2.523,0,0,0,2.438-1.391h.047Zm-.261-4.491v1.266a2.08,2.08,0,0,1-.485,1.389,1.626,1.626,0,0,1-1.333.625,1.737,1.737,0,0,1-1.475-.749,3,3,0,0,1-.518-1.827A3.215,3.215,0,0,1,84.661,11a1.732,1.732,0,0,1,1.484-.75,1.658,1.658,0,0,1,1.129.414,1.922,1.922,0,0,1,.61,1.022A2.483,2.483,0,0,1,87.931,12.216Z" transform="translate(50.295 3.438)" fill-rule="evenodd"/><path d="M97.675,14.451a4.163,4.163,0,0,0,1-2.874A4.007,4.007,0,0,0,97.707,8.8a3.468,3.468,0,0,0-2.686-1.108,3.547,3.547,0,0,0-2.758,1.124A4.123,4.123,0,0,0,91.242,11.7a4.04,4.04,0,0,0,.99,2.8,3.4,3.4,0,0,0,2.663,1.109A3.566,3.566,0,0,0,97.675,14.451Zm-1.21-4.628a3.433,3.433,0,0,1,.452,1.8,3.426,3.426,0,0,1-.469,1.816,1.724,1.724,0,0,1-3.046.016,3.433,3.433,0,0,1-.452-1.8A3.479,3.479,0,0,1,93.4,9.823a1.7,1.7,0,0,1,1.547-.908A1.669,1.669,0,0,1,96.465,9.823Z" transform="translate(55.662 4.692)" fill-rule="evenodd"/><path d="M103.945,15.395h-1.678V11.071q0-2-1.522-2a1.509,1.509,0,0,0-1.211.549,1.941,1.941,0,0,0-.466,1.294v4.477h-1.68V10q0-.994-.059-2.16H98.8l.078,1.18h.047a2.449,2.449,0,0,1,.869-.911,2.842,2.842,0,0,1,1.523-.424,2.411,2.411,0,0,1,1.756.684,3.316,3.316,0,0,1,.869,2.5Z" transform="translate(59.376 4.69)"/><path d="M110.194,9.756h-1.847v3.667q0,1.4.977,1.4a2.962,2.962,0,0,0,.749-.079l.043,1.273a3.775,3.775,0,0,1-1.3.187,2.007,2.007,0,0,1-1.552-.605,2.967,2.967,0,0,1-.56-2.035V9.756h-1.1V8.5h1.1V7.115l1.645-.5V8.5h1.847V9.756Z" transform="translate(64.42 4.038)"/><path d="M116.454,16.647h-1.679V12.356q0-2.03-1.52-2.03a1.6,1.6,0,0,0-1.6,1.177,2.161,2.161,0,0,0-.077.6v4.54H109.9V5.635h1.678v4.549h.032a2.535,2.535,0,0,1,2.267-1.241,2.336,2.336,0,0,1,1.726.684,3.438,3.438,0,0,1,.853,2.532Z" transform="translate(67.044 3.438)"/><path d="M122.179,12.052a4.078,4.078,0,0,0,.063-.765,4.052,4.052,0,0,0-.676-2.388,2.823,2.823,0,0,0-2.481-1.217A3.227,3.227,0,0,0,116.431,8.9a4.344,4.344,0,0,0-.937,2.858,3.826,3.826,0,0,0,1.006,2.787,3.679,3.679,0,0,0,2.771,1.038,6.355,6.355,0,0,0,2.547-.469l-.264-1.172a5.59,5.59,0,0,1-2.046.359,2.514,2.514,0,0,1-1.657-.531,2.213,2.213,0,0,1-.733-1.718Zm-1.884-2.5a2.272,2.272,0,0,1,.327,1.3h-3.513a2.554,2.554,0,0,1,.5-1.312,1.6,1.6,0,0,1,1.343-.687A1.474,1.474,0,0,1,120.3,9.548Z" transform="translate(70.458 4.686)" fill-rule="evenodd"/></svg>