<svg xmlns="http://www.w3.org/2000/svg" xmlns:xlink="http://www.w3.org/1999/xlink" width="195.144" height="65.418" viewBox="0 0 195.144 65.418"><defs><linearGradient id="a" x1="0.5" x2="0.5" y2="1" gradientUnits="objectBoundingBox"><stop offset="0" stop-color="#a884ff"/><stop offset="1" stop-color="#8c60fb"/></linearGradient></defs><g transform="translate(-189.624 -108.105)"><path d="M-69.708-22.865a16.66,16.66,0,0,1,5.233.64q1.842.64,1.842,2.145a5.274,5.274,0,0,1-1.28,3.234q-4.852-2.134-7.435-2.134a3.288,3.288,0,0,0-2.033.517,1.768,1.768,0,0,0-.663,1.482,2.222,2.222,0,0,0,.887,1.752,15.847,15.847,0,0,0,4.1,1.887,14.624,14.624,0,0,1,5.334,2.808,5.331,5.331,0,0,1,1.583,4.021A5.8,5.8,0,0,1-64.89-1.348a13.477,13.477,0,0,1-7.446,1.8,22.38,22.38,0,0,1-6.177-.6,2.425,2.425,0,0,1-1.864-2.459,4.315,4.315,0,0,1,1.1-2.74,20.582,20.582,0,0,0,7.929,1.909,4.293,4.293,0,0,0,2.2-.472A1.688,1.688,0,0,0-68.36-5.48a2.293,2.293,0,0,0-1.381-2.044,38.191,38.191,0,0,0-4.436-1.932,13.132,13.132,0,0,1-4.683-2.707,5.12,5.12,0,0,1-1.4-3.717,5.866,5.866,0,0,1,2.8-5.087Q-74.671-22.865-69.708-22.865Zm67.293,9.142q0,7.974.112,10.646H.146a3.414,3.414,0,0,1,.4,1.662,1.5,1.5,0,0,1-.326,1.1A1.869,1.869,0,0,1-1.044,0h-9.321a4.742,4.742,0,0,1-.382-1.774,1.344,1.344,0,0,1,.314-1,1.419,1.419,0,0,1,1.011-.3h.562q.112-3.931.112-7.771,0-4.582-.842-6.143a2.871,2.871,0,0,0-2.729-1.561,2.841,2.841,0,0,0-2.066.932q-.921.932-.921,3.9v4.515q0,2.83.112,6.132h1.617A3.576,3.576,0,0,1-13.2-1.415a1.5,1.5,0,0,1-.326,1.1A1.869,1.869,0,0,1-14.791,0h-9.523a4.518,4.518,0,0,1-.4-1.774,1.344,1.344,0,0,1,.314-1,1.419,1.419,0,0,1,1.011-.3h1.64q.112-3.706.112-7.659,0-6.289-.6-7.435a2.141,2.141,0,0,0-2.078-1.146,4.347,4.347,0,0,1-.4-1.8,1.019,1.019,0,0,1,.6-1.056,54.236,54.236,0,0,1,7.423-.449,14.612,14.612,0,0,1,0,2.583A19.172,19.172,0,0,1-12.106-22.2a13.346,13.346,0,0,1,3.74-.64,6.932,6.932,0,0,1,3.414.685A3.877,3.877,0,0,1-3.268-20.35a17.622,17.622,0,0,1,4.11-1.864,12.832,12.832,0,0,1,3.616-.629A6.465,6.465,0,0,1,8.939-21.45q1.539,1.393,1.539,5.615,0,11.051.4,11.916a1.7,1.7,0,0,0,1.752.842,4.338,4.338,0,0,1,.337,1.685,1.144,1.144,0,0,1-.528,1.1A4.661,4.661,0,0,1,10.433,0q-3.639,0-4.6-.112A1.636,1.636,0,0,1,4.5-.842,4.384,4.384,0,0,1,4.144-2.92v-7.929q0-4.582-.842-6.143A2.871,2.871,0,0,0,.573-18.553a2.841,2.841,0,0,0-2.066.932Q-2.415-16.688-2.415-13.724ZM24-20.035A18.526,18.526,0,0,1,28.705-22.2a14.358,14.358,0,0,1,3.785-.64A6.835,6.835,0,0,1,37.2-21.45q1.539,1.393,1.539,5.615,0,11.051.4,11.916a1.7,1.7,0,0,0,1.752.842,4.338,4.338,0,0,1,.337,1.685,1.144,1.144,0,0,1-.528,1.1A4.661,4.661,0,0,1,38.689,0q-3.639,0-4.6-.112a1.636,1.636,0,0,1-1.325-.73A4.384,4.384,0,0,1,32.4-2.92v-7.929q0-4.582-.842-6.143a2.871,2.871,0,0,0-2.729-1.561,3.376,3.376,0,0,0-2.516.932q-.921.932-.921,3.9v4.515q0,2.83.112,6.132h2.673a3.576,3.576,0,0,1,.382,1.662,1.5,1.5,0,0,1-.326,1.1A1.869,1.869,0,0,1,26.964,0H16.385a4.518,4.518,0,0,1-.4-1.774,1.344,1.344,0,0,1,.314-1,1.419,1.419,0,0,1,1.011-.3h1.64q.112-3.706.112-7.659,0-6.289-.6-7.435a2.141,2.141,0,0,0-2.078-1.146,4.347,4.347,0,0,1-.4-1.8,1.019,1.019,0,0,1,.6-1.056A54.236,54.236,0,0,1,24-22.618,14.612,14.612,0,0,1,24-20.035Zm25.4-5.5a4.441,4.441,0,0,1-2.92-.775,2.736,2.736,0,0,1-.9-2.19A3.032,3.032,0,0,1,46.73-30.94a4.955,4.955,0,0,1,3.257-.955,4.509,4.509,0,0,1,3.055.82,2.767,2.767,0,0,1,.9,2.145A3.119,3.119,0,0,1,52.862-26.5,5.105,5.105,0,0,1,49.4-25.538Zm4.11,22.461h2.65a3.576,3.576,0,0,1,.382,1.662,1.5,1.5,0,0,1-.326,1.1A1.869,1.869,0,0,1,54.951,0H44.169a4.742,4.742,0,0,1-.382-1.774,1.344,1.344,0,0,1,.314-1,1.419,1.419,0,0,1,1.011-.3h1.842q.112-2.875.112-6.132,0-4.964-.079-6.592a8.934,8.934,0,0,0-.348-2.381,1.4,1.4,0,0,0-.831-.943,5.375,5.375,0,0,0-1.64-.191,2.757,2.757,0,0,1-.382-1.46,1.414,1.414,0,0,1,1.033-1.55,18.975,18.975,0,0,1,4.2-.292,19.034,19.034,0,0,1,3.246.18q.865.18.988.708a6.8,6.8,0,0,1,.124,1.471V-9.209Q53.4-5.952,53.513-3.077ZM73.234-1.729A24.3,24.3,0,0,1,69.393-.213a13.864,13.864,0,0,1-4.065.663q-3.257,0-4.773-1.5a5.684,5.684,0,0,1-1.516-4.223,6.438,6.438,0,0,1,2.605-5.638q2.605-1.842,8.221-1.842h2.448q-.2-3.459-1.146-4.728a3.3,3.3,0,0,0-2.83-1.269,10.4,10.4,0,0,0-2.246.27,8.678,8.678,0,0,1-.932,1.572,10.8,10.8,0,0,1-1.55.4,2.242,2.242,0,0,1-1.988-.2,5.543,5.543,0,0,1-1.179-1.819,5.524,5.524,0,0,1-.6-2.2,1,1,0,0,1,.46-.876,12.1,12.1,0,0,1,3.4-.674,51.758,51.758,0,0,1,6.267-.359,11.973,11.973,0,0,1,6.2,1.359q2.246,1.359,2.246,5.267v5.952a24.473,24.473,0,0,0,.427,6.1,1.209,1.209,0,0,0,1.527.887,2.6,2.6,0,0,1,.337,1.235A1.676,1.676,0,0,1,79.512-.3a8.217,8.217,0,0,1-3.246.528A3.628,3.628,0,0,1,74.851,0,5.828,5.828,0,0,1,73.234-1.729Zm-.921-7.457a16.036,16.036,0,0,0-3.279-.337,4.46,4.46,0,0,0-2.7.629,2.882,2.882,0,0,0-.809,2.381,3.071,3.071,0,0,0,.8,2.3,3.2,3.2,0,0,0,2.325.775A4.351,4.351,0,0,0,70.8-3.953a2.467,2.467,0,0,0,1.224-1.471,8.694,8.694,0,0,0,.292-2.482Z" transform="translate(270 140)" fill="#feb02a"/><g transform="translate(210.066 113.776)"><path d="M14.021,0c8.542,0,12.74,2.44,12.74,11.069s-1.128,11.215-9.67,11.215S0,19.7,0,11.069,5.478,0,14.021,0Z" transform="translate(1.459 8.939) rotate(-11)" opacity="0.126" fill="url(#a)"/><path d="M14.021,0c8.542,0,12.74,2.44,12.74,11.069s-1.128,11.215-9.67,11.215S0,19.7,0,11.069,5.478,0,14.021,0Z" transform="translate(0 22.186) rotate(-56)" opacity="0.197" fill="url(#a)"/><path d="M14.021,0c8.542,0,12.74,2.44,12.74,11.069s-1.127,11.215-9.67,11.215S0,19.7,0,11.069,5.478,0,14.021,0Z" transform="translate(13.761 34.482) rotate(-120)" opacity="0.219" fill="url(#a)"/><path d="M12.828,0c7.816,0,11.657,2.232,11.657,10.128s-1.032,10.261-8.847,10.261S0,18.024,0,10.128,5.013,0,12.828,0Z" transform="translate(27.216 29.308) rotate(-171)" fill="#dcceff" opacity="0.113"/></g><g transform="translate(368.389 123.847) rotate(45)" style="mix-blend-mode:overlay;isolation:isolate"><path d="M9.978,12.864C4.333,12.734,0,11.968,0,11.044S4.333,9.353,9.978,9.222C10.135,3.99,10.954,0,11.942,0s1.808,4,1.964,9.236c5.4.163,9.48.91,9.48,1.808s-4.08,1.645-9.48,1.807c-.155,5.239-.976,9.236-1.964,9.236S10.135,18.1,9.978,12.864Z" transform="matrix(0.974, -0.225, 0.225, 0.974, 0.377, 5.261)" fill="#fff"/><path d="M6.079,7.468C2.64,7.393,0,6.948,0,6.411S2.64,5.43,6.079,5.354C6.174,2.316,6.674,0,7.275,0s1.1,2.32,1.2,5.362c3.29.095,5.776.528,5.776,1.05s-2.486.955-5.776,1.049c-.095,3.041-.594,5.362-1.2,5.362S6.174,10.506,6.079,7.468Z" transform="translate(22.083 21.1)" fill="#fff"/><path d="M6.079,7.468C2.64,7.393,0,6.948,0,6.411S2.64,5.43,6.079,5.354C6.174,2.316,6.674,0,7.275,0s1.1,2.32,1.2,5.362c3.29.095,5.776.528,5.776,1.05s-2.486.955-5.776,1.049c-.095,3.041-.594,5.362-1.2,5.362S6.174,10.506,6.079,7.468Z" transform="translate(0 26.442)" fill="#fff"/></g></g></svg>