<svg xmlns="http://www.w3.org/2000/svg" width="206.922" height="61.181" viewBox="0 0 206.922 61.181"><path d="M199.259,61.181H7.664A7.581,7.581,0,0,1,0,53.533V7.648A7.581,7.581,0,0,1,7.664,0H199.259a7.581,7.581,0,0,1,7.664,7.648V53.533A7.581,7.581,0,0,1,199.259,61.181Z" fill="#fff"/><path d="M48.61,11.6a4.161,4.161,0,0,1-1.073,3.059A4.752,4.752,0,0,1,39.413,11.3a4.705,4.705,0,0,1,4.752-4.742A4.088,4.088,0,0,1,46,7.014a3.337,3.337,0,0,1,1.379,1.071l-.766.765a2.861,2.861,0,0,0-2.452-1.071,3.053,3.053,0,0,0-2.452,1.071,3.148,3.148,0,0,0-1.073,2.6,3.148,3.148,0,0,0,1.073,2.6,3.951,3.951,0,0,0,2.452,1.071A3.365,3.365,0,0,0,46.77,14.05a2.53,2.53,0,0,0,.766-1.835H44.165V10.991H48.61ZM55.66,7.779H51.522v2.906h3.832v1.071H51.522v2.906H55.66v1.224H50.3V6.708H55.66Zm5.058,8.106H59.492V7.779H56.887V6.708h6.438V7.779H60.718Zm7.051,0V6.708H69v9.177Zm6.438,0H72.981V7.779H70.375V6.708h6.284V7.779H74.054v8.106Zm14.561-1.224A4.752,4.752,0,0,1,80.644,11.3a4.752,4.752,0,1,1,9.5,0A4.492,4.492,0,0,1,88.768,14.661ZM82.943,13.9A3.621,3.621,0,0,0,85.4,14.967,3.053,3.053,0,0,0,87.848,13.9a3.686,3.686,0,0,0,1.073-2.6,3.148,3.148,0,0,0-1.073-2.6A3.621,3.621,0,0,0,85.4,7.626,3.053,3.053,0,0,0,82.943,8.7a3.686,3.686,0,0,0-1.073,2.6A3.148,3.148,0,0,0,82.943,13.9Zm8.89,1.988V6.708h1.379L97.658,13.9V6.708h1.226v9.177H97.658L92.906,8.39v7.495Z" transform="translate(24.043 3.999)"/><path d="M80.512,23.434a6.442,6.442,0,0,0-6.591,6.577,6.535,6.535,0,0,0,6.591,6.577A6.442,6.442,0,0,0,87.1,30.011,6.352,6.352,0,0,0,80.512,23.434Zm0,10.4a3.8,3.8,0,0,1-3.679-3.977,3.8,3.8,0,0,1,3.679-3.977,3.709,3.709,0,0,1,3.679,3.977A3.8,3.8,0,0,1,80.512,33.835Zm-14.255-10.4a6.442,6.442,0,0,0-6.591,6.577,6.535,6.535,0,0,0,6.591,6.577,6.442,6.442,0,0,0,6.591-6.577A6.352,6.352,0,0,0,66.257,23.434Zm0,10.4a3.8,3.8,0,0,1-3.679-3.977,3.8,3.8,0,0,1,3.679-3.977,3.709,3.709,0,0,1,3.679,3.977A3.8,3.8,0,0,1,66.257,33.835ZM49.244,25.422v2.753h6.591A5.778,5.778,0,0,1,54.3,31.693a6.791,6.791,0,0,1-5.058,1.988,7.128,7.128,0,0,1-7.2-7.342A7.222,7.222,0,0,1,49.244,19,7.608,7.608,0,0,1,54.3,20.987L56.294,19a9.833,9.833,0,0,0-6.9-2.753A10.329,10.329,0,0,0,39.127,26.34,10.329,10.329,0,0,0,49.4,36.435a8.83,8.83,0,0,0,7.051-2.906A9.2,9.2,0,0,0,58.9,27.1a5.723,5.723,0,0,0-.153-1.682Zm69.587,2.141a5.953,5.953,0,0,0-5.518-4.13c-3.372,0-6.131,2.6-6.131,6.577a6.407,6.407,0,0,0,6.438,6.577,6.29,6.29,0,0,0,5.365-2.906l-2.146-1.53a3.738,3.738,0,0,1-3.219,1.835A3.326,3.326,0,0,1,110.4,32l8.737-3.671Zm-8.89,2.141a3.719,3.719,0,0,1,3.372-3.824,2.712,2.712,0,0,1,2.452,1.377Zm-7.2,6.271h2.912V16.857h-2.912Zm-4.6-11.166a5.052,5.052,0,0,0-3.525-1.53,6.578,6.578,0,0,0-6.284,6.577,6.34,6.34,0,0,0,6.284,6.424,4.4,4.4,0,0,0,3.372-1.53h.153v.918c0,2.447-1.379,3.824-3.525,3.824A3.4,3.4,0,0,1,91.395,37.2L88.942,38.27a6.323,6.323,0,0,0,5.824,3.824c3.372,0,6.131-1.988,6.131-6.73V23.74H98.139Zm-3.372,9.024a3.8,3.8,0,0,1-3.679-3.977,3.8,3.8,0,0,1,3.679-3.977,3.683,3.683,0,0,1,3.525,3.977A3.683,3.683,0,0,1,94.767,33.835Zm37.4-16.978h-6.9V35.976h2.912V28.787h3.985a5.973,5.973,0,1,0,0-11.93Zm.153,9.177h-4.139V19.457h4.139a3.363,3.363,0,0,1,3.372,3.212A3.5,3.5,0,0,1,132.319,26.034Zm17.627-2.753c-2.146,0-4.292.918-5.059,2.906l2.605,1.071a2.71,2.71,0,0,1,2.607-1.377,2.879,2.879,0,0,1,3.065,2.447v.153a6.091,6.091,0,0,0-2.913-.765c-2.76,0-5.518,1.53-5.518,4.283a4.487,4.487,0,0,0,4.751,4.283,4.316,4.316,0,0,0,3.679-1.835h.153v1.53h2.76V28.634A5.8,5.8,0,0,0,149.947,23.281Zm-.308,10.554c-.919,0-2.3-.459-2.3-1.682,0-1.53,1.686-1.988,3.065-1.988a5.94,5.94,0,0,1,2.607.612A3.569,3.569,0,0,1,149.639,33.835ZM165.733,23.74,162.514,32h-.153L158.99,23.74h-3.067l5.059,11.624-2.913,6.424h2.913L168.8,23.74ZM139.984,35.976h2.911V16.857h-2.911Z" transform="translate(23.869 9.91)"/><path d="M10.133,7.125A2.986,2.986,0,0,0,9.52,9.266v33.8a3.022,3.022,0,0,0,.766,2.141l.153.153L29.446,26.4v-.306Z" transform="translate(5.807 4.346)" stroke="#fff" stroke-width="0.1"/><path d="M28.085,28.011,21.8,21.74v-.459l6.284-6.271.153.153,7.51,4.283c2.146,1.224,2.146,3.212,0,4.436Z" transform="translate(13.299 9.156)" stroke="#fff" stroke-width="0.1"/><path d="M35.5,25.424,29.06,19,9.9,38.119c.766.765,1.839.765,3.219.153Z" transform="translate(6.04 11.59)" stroke="#fff" stroke-width="0.1"/><path d="M35.5,20.011,13.12,7.316C11.74,6.551,10.667,6.7,9.9,7.468L29.06,26.435Z" transform="translate(6.04 4.156)" stroke="#fff" stroke-width="0.1"/><path d="M35.345,22.9,13.12,35.437a2.511,2.511,0,0,1-3.066,0L9.9,35.59l.153.153a2.511,2.511,0,0,0,3.066,0Z" transform="translate(6.04 13.967)" opacity="0.2"/><path d="M10.133,37.813a2.986,2.986,0,0,1-.613-2.141v.153a3.022,3.022,0,0,0,.766,2.141v-.153ZM43.241,20.988l-7.664,4.283.153.153,7.51-4.283A2.543,2.543,0,0,0,44.773,19C44.773,19.765,44.16,20.377,43.241,20.988Z" transform="translate(5.807 11.59)" opacity="0.2"/><path d="M13.352,7.482,43.241,24.46c.92.612,1.533,1.224,1.533,1.988a2.543,2.543,0,0,0-1.533-2.141L13.352,7.329C11.206,6.106,9.52,7.024,9.52,9.471v.153C9.52,7.329,11.206,6.259,13.352,7.482Z" transform="translate(5.807 4.142)" opacity="0.2"/></svg>