<svg xmlns="http://www.w3.org/2000/svg" xmlns:xlink="http://www.w3.org/1999/xlink" width="272.345" height="1483" viewBox="0 0 272.345 1483"><defs><radialGradient id="a" cx="0.657" cy="0.293" r="0.5" gradientUnits="objectBoundingBox"><stop offset="0" stop-color="#fdc673"/><stop offset="1" stop-color="#fb924d"/></radialGradient><filter id="b" x="30.437" y="1320.091" width="162.909" height="162.909" filterUnits="userSpaceOnUse"><feOffset dy="25" input="SourceAlpha"/><feGaussianBlur stdDeviation="18.5" result="c"/><feFlood flood-color="#1a1442"/><feComposite operator="in" in2="c"/><feComposite in="SourceGraphic"/></filter><filter id="e" x="109.437" y="876.091" width="162.909" height="162.909" filterUnits="userSpaceOnUse"><feOffset dy="25" input="SourceAlpha"/><feGaussianBlur stdDeviation="18.5" result="f"/><feFlood flood-color="#1a1442"/><feComposite operator="in" in2="f"/><feComposite in="SourceGraphic"/></filter><filter id="h" x="40.937" y="424" width="162.909" height="162.909" filterUnits="userSpaceOnUse"><feOffset dy="25" input="SourceAlpha"/><feGaussianBlur stdDeviation="18.5" result="i"/><feFlood flood-color="#1a1442"/><feComposite operator="in" in2="i"/><feComposite in="SourceGraphic"/></filter><filter id="k" x="0" y="0" width="149" height="149" filterUnits="userSpaceOnUse"><feOffset dy="25" input="SourceAlpha"/><feGaussianBlur stdDeviation="18.5" result="l"/><feFlood flood-color="#1a1442"/><feComposite operator="in" in2="l"/><feComposite in="SourceGraphic"/></filter></defs><g transform="translate(2369.5 -256.5) rotate(90)"><g transform="matrix(0, -1, 1, 0, 256.5, 2369.5)" filter="url(#b)"><circle cx="19" cy="19" r="19" transform="translate(104.94 1350.59) rotate(30)" fill="url(#a)"/></g><g transform="matrix(0, -1, 1, 0, 256.5, 2369.5)" filter="url(#e)"><circle cx="19" cy="19" r="19" transform="translate(183.94 906.59) rotate(30)" fill="url(#a)"/></g><path d="M-4.393,69.154C187.618,65.79,201.782,32.068,357.5,110.145s381.377-14.691,501.268-56.11,301.1-107.985,458.99-66.9" transform="translate(1623.904 2326.98) rotate(-178)" fill="none" stroke="#fac03f" stroke-width="1"/><g transform="matrix(0, -1, 1, 0, 256.5, 2369.5)" filter="url(#h)"><circle cx="19" cy="19" r="19" transform="translate(115.44 454.5) rotate(30)" fill="url(#a)"/></g><g transform="matrix(0, -1, 1, 0, 256.5, 2369.5)" filter="url(#k)"><circle cx="19" cy="19" r="19" transform="translate(93.5 30.5) rotate(90)" fill="url(#a)"/></g></g></svg>