<svg xmlns="http://www.w3.org/2000/svg" xmlns:xlink="http://www.w3.org/1999/xlink" width="1483" height="272.345" viewBox="0 0 1483 272.345"><defs><radialGradient id="a" cx="0.657" cy="0.293" r="0.5" gradientUnits="objectBoundingBox"><stop offset="0" stop-color="#fdc673"/><stop offset="1" stop-color="#fb924d"/></radialGradient><filter id="b" x="1320.091" y="79" width="162.909" height="162.909" filterUnits="userSpaceOnUse"><feOffset dy="25" input="SourceAlpha"/><feGaussianBlur stdDeviation="18.5" result="c"/><feFlood flood-color="#1a1442"/><feComposite operator="in" in2="c"/><feComposite in="SourceGraphic"/></filter><filter id="e" x="876.091" y="0" width="162.909" height="162.909" filterUnits="userSpaceOnUse"><feOffset dy="25" input="SourceAlpha"/><feGaussianBlur stdDeviation="18.5" result="f"/><feFlood flood-color="#1a1442"/><feComposite operator="in" in2="f"/><feComposite in="SourceGraphic"/></filter><filter id="h" x="424" y="68.5" width="162.909" height="162.909" filterUnits="userSpaceOnUse"><feOffset dy="25" input="SourceAlpha"/><feGaussianBlur stdDeviation="18.5" result="i"/><feFlood flood-color="#1a1442"/><feComposite operator="in" in2="i"/><feComposite in="SourceGraphic"/></filter><filter id="k" x="0" y="123.345" width="149" height="149" filterUnits="userSpaceOnUse"><feOffset dy="25" input="SourceAlpha"/><feGaussianBlur stdDeviation="18.5" result="l"/><feFlood flood-color="#1a1442"/><feComposite operator="in" in2="l"/><feComposite in="SourceGraphic"/></filter></defs><g transform="translate(-231.5 -2122.155)"><g transform="matrix(1, 0, 0, 1, 231.5, 2122.15)" filter="url(#b)"><circle cx="19" cy="19" r="19" transform="translate(1375.59 142.41) rotate(-60)" fill="url(#a)"/></g><g transform="matrix(1, 0, 0, 1, 231.5, 2122.15)" filter="url(#e)"><circle cx="19" cy="19" r="19" transform="translate(931.59 63.41) rotate(-60)" fill="url(#a)"/></g><path d="M-4.393,69.154C187.618,65.79,201.782,32.068,357.5,110.145s381.377-14.691,501.268-56.11,301.1-107.985,458.99-66.9" transform="translate(1623.904 2326.98) rotate(-178)" fill="none" stroke="#fac03f" stroke-width="1"/><g transform="matrix(1, 0, 0, 1, 231.5, 2122.15)" filter="url(#h)"><circle cx="19" cy="19" r="19" transform="translate(479.5 131.91) rotate(-60)" fill="url(#a)"/></g><g transform="matrix(1, 0, 0, 1, 231.5, 2122.15)" filter="url(#k)"><circle cx="19" cy="19" r="19" transform="translate(55.5 153.85)" fill="url(#a)"/></g></g></svg>