<svg xmlns="http://www.w3.org/2000/svg" xmlns:xlink="http://www.w3.org/1999/xlink" width="197.768" height="76.523" viewBox="0 0 197.768 76.523"><defs><linearGradient id="a" x1="0.5" x2="0.5" y2="1" gradientUnits="objectBoundingBox"><stop offset="0" stop-color="#a884ff"/><stop offset="1" stop-color="#8c60fb"/></linearGradient></defs><g transform="translate(-187 -104)"><g transform="translate(188 104)"><text transform="translate(82 43)" fill="#feb02a" font-size="46" font-family="Kefa-Bold, Kefa" font-weight="700"><tspan x="-82.331" y="0" xml:space="preserve">s   mnia</tspan></text><g transform="translate(22.066 16.777)"><path d="M14.021,0c8.542,0,12.74,2.44,12.74,11.069s-1.128,11.215-9.67,11.215S0,19.7,0,11.069,5.478,0,14.021,0Z" transform="translate(1.459 8.939) rotate(-11)" opacity="0.126" fill="url(#a)"/><path d="M14.021,0c8.542,0,12.74,2.44,12.74,11.069s-1.128,11.215-9.67,11.215S0,19.7,0,11.069,5.478,0,14.021,0Z" transform="translate(0 22.186) rotate(-56)" opacity="0.197" fill="url(#a)"/><path d="M14.021,0c8.542,0,12.74,2.44,12.74,11.069s-1.127,11.215-9.67,11.215S0,19.7,0,11.069,5.478,0,14.021,0Z" transform="translate(13.761 34.482) rotate(-120)" opacity="0.219" fill="url(#a)"/><path d="M12.828,0c7.816,0,11.657,2.232,11.657,10.128s-1.032,10.261-8.847,10.261S0,18.024,0,10.128,5.013,0,12.828,0Z" transform="translate(27.216 29.308) rotate(-171)" fill="#dcceff" opacity="0.113"/></g></g><g transform="translate(368.389 130.847) rotate(45)" style="mix-blend-mode:overlay;isolation:isolate"><path d="M9.978,12.864C4.333,12.734,0,11.968,0,11.044S4.333,9.353,9.978,9.222C10.135,3.99,10.954,0,11.942,0s1.808,4,1.964,9.236c5.4.163,9.48.91,9.48,1.808s-4.08,1.645-9.48,1.807c-.155,5.239-.976,9.236-1.964,9.236S10.135,18.1,9.978,12.864Z" transform="matrix(0.974, -0.225, 0.225, 0.974, 0.377, 5.261)" fill="#4434BC"/><path d="M6.079,7.468C2.64,7.393,0,6.948,0,6.411S2.64,5.43,6.079,5.354C6.174,2.316,6.674,0,7.275,0s1.1,2.32,1.2,5.362c3.29.095,5.776.528,5.776,1.05s-2.486.955-5.776,1.049c-.095,3.041-.594,5.362-1.2,5.362S6.174,10.506,6.079,7.468Z" transform="translate(22.083 21.1)" fill="#4434BC"/><path d="M6.079,7.468C2.64,7.393,0,6.948,0,6.411S2.64,5.43,6.079,5.354C6.174,2.316,6.674,0,7.275,0s1.1,2.32,1.2,5.362c3.29.095,5.776.528,5.776,1.05s-2.486.955-5.776,1.049c-.095,3.041-.594,5.362-1.2,5.362S6.174,10.506,6.079,7.468Z" transform="translate(0 26.442)" fill="#4434BC"/></g></g></svg>