<svg xmlns="http://www.w3.org/2000/svg" xmlns:xlink="http://www.w3.org/1999/xlink" width="1920" height="858" viewBox="0 0 1920 858"><defs><linearGradient id="a" x1="0.5" x2="0.5" y2="1" gradientUnits="objectBoundingBox"><stop offset="0" stop-color="#261d69"/><stop offset="1" stop-color="#130f35"/></linearGradient><clipPath id="b"><rect width="1920" height="858" fill="url(#a)"/></clipPath><filter id="d" x="-187.686" y="-54.5" width="2211.332" height="954.022" filterUnits="userSpaceOnUse"><feOffset dy="23" input="SourceAlpha"/><feGaussianBlur stdDeviation="18.5" result="e"/><feFlood flood-opacity="0.161"/><feComposite operator="in" in2="e"/><feComposite in="SourceGraphic"/></filter></defs><g clip-path="url(#b)" style="isolation:isolate"><g transform="matrix(1, 0, 0, 1, 0, 0)" filter="url(#d)"><path d="M12181.313,1143.429s243.006,322.327,491.862,298.337,456.565,21.759,579.847,87.436,275.949,312.768,649.772,313.634,324.761,126.77,362.208,125.172,0-843.007,0-843.007Z" transform="translate(-12313.5 -1147)" fill="url(#a)"/></g></g><path d="M5.12,6.407C2.224,6.342,0,5.96,0,5.5s2.224-.842,5.12-.907C5.2,1.987,5.621,0,6.128,0s.928,1.99,1.008,4.6C9.906,4.681,12,5.053,12,5.5s-2.094.819-4.865.9c-.08,2.609-.5,4.6-1.008,4.6S5.2,9.013,5.12,6.407Z" transform="translate(476 72)" fill="#fff"/><path d="M5.12,6.407C2.224,6.342,0,5.96,0,5.5s2.224-.842,5.12-.907C5.2,1.987,5.621,0,6.128,0s.928,1.99,1.008,4.6C9.906,4.681,12,5.053,12,5.5s-2.094.819-4.865.9c-.08,2.609-.5,4.6-1.008,4.6S5.2,9.013,5.12,6.407Z" transform="translate(434 202)" fill="#fff"/><g transform="translate(333 40)"><path d="M5.12,6.407C2.224,6.342,0,5.96,0,5.5s2.224-.842,5.12-.907C5.2,1.987,5.621,0,6.128,0s.928,1.99,1.008,4.6C9.906,4.681,12,5.053,12,5.5s-2.094.819-4.865.9c-.08,2.609-.5,4.6-1.008,4.6S5.2,9.013,5.12,6.407Z" fill="#fff"/></g><path d="M5.12,6.407C2.224,6.342,0,5.96,0,5.5s2.224-.842,5.12-.907C5.2,1.987,5.621,0,6.128,0s.928,1.99,1.008,4.6C9.906,4.681,12,5.053,12,5.5s-2.094.819-4.865.9c-.08,2.609-.5,4.6-1.008,4.6S5.2,9.013,5.12,6.407Z" transform="translate(1592.731 198.51) rotate(163)" fill="#fff"/><path d="M5.12,6.407C2.224,6.342,0,5.96,0,5.5s2.224-.842,5.12-.907C5.2,1.987,5.621,0,6.128,0s.928,1.99,1.008,4.6C9.906,4.681,12,5.053,12,5.5s-2.094.819-4.865.9c-.08,2.609-.5,4.6-1.008,4.6S5.2,9.013,5.12,6.407Z" transform="matrix(0.891, 0.454, -0.454, 0.891, 1746.667, 385.598)" fill="#fff"/><path d="M5.12,6.407C2.224,6.342,0,5.96,0,5.5s2.224-.842,5.12-.907C5.2,1.987,5.621,0,6.128,0s.928,1.99,1.008,4.6C9.906,4.681,12,5.053,12,5.5s-2.094.819-4.865.9c-.08,2.609-.5,4.6-1.008,4.6S5.2,9.013,5.12,6.407Z" transform="matrix(0.891, 0.454, -0.454, 0.891, 1150.667, 187.598)" fill="#fff"/><path d="M5.12,6.407C2.224,6.342,0,5.96,0,5.5s2.224-.842,5.12-.907C5.2,1.987,5.621,0,6.128,0s.928,1.99,1.008,4.6C9.906,4.681,12,5.053,12,5.5s-2.094.819-4.865.9c-.08,2.609-.5,4.6-1.008,4.6S5.2,9.013,5.12,6.407Z" transform="matrix(0.891, 0.454, -0.454, 0.891, 1028.667, 82.598)" fill="#fff"/><path d="M5.12,6.407C2.224,6.342,0,5.96,0,5.5s2.224-.842,5.12-.907C5.2,1.987,5.621,0,6.128,0s.928,1.99,1.008,4.6C9.906,4.681,12,5.053,12,5.5s-2.094.819-4.865.9c-.08,2.609-.5,4.6-1.008,4.6S5.2,9.013,5.12,6.407Z" transform="translate(1428.804 257.466) rotate(163)" fill="#fff"/><path d="M5.12,6.407C2.224,6.342,0,5.96,0,5.5s2.224-.842,5.12-.907C5.2,1.987,5.621,0,6.128,0s.928,1.99,1.008,4.6C9.906,4.681,12,5.053,12,5.5s-2.094.819-4.865.9c-.08,2.609-.5,4.6-1.008,4.6S5.2,9.013,5.12,6.407Z" transform="translate(1234.804 264.466) rotate(163)" fill="#fff"/><path d="M5.12,6.407C2.224,6.342,0,5.96,0,5.5s2.224-.842,5.12-.907C5.2,1.987,5.621,0,6.128,0s.928,1.99,1.008,4.6C9.906,4.681,12,5.053,12,5.5s-2.094.819-4.865.9c-.08,2.609-.5,4.6-1.008,4.6S5.2,9.013,5.12,6.407Z" transform="translate(622.804 174.466) rotate(163)" fill="#fff"/><path d="M5.12,6.407C2.224,6.342,0,5.96,0,5.5s2.224-.842,5.12-.907C5.2,1.987,5.621,0,6.128,0s.928,1.99,1.008,4.6C9.906,4.681,12,5.053,12,5.5s-2.094.819-4.865.9c-.08,2.609-.5,4.6-1.008,4.6S5.2,9.013,5.12,6.407Z" transform="matrix(0.891, 0.454, -0.454, 0.891, 1790.55, 239.787)" fill="#fff"/><path d="M5.12,6.407C2.224,6.342,0,5.96,0,5.5s2.224-.842,5.12-.907C5.2,1.987,5.621,0,6.128,0s.928,1.99,1.008,4.6C9.906,4.681,12,5.053,12,5.5s-2.094.819-4.865.9c-.08,2.609-.5,4.6-1.008,4.6S5.2,9.013,5.12,6.407Z" transform="matrix(0.891, 0.454, -0.454, 0.891, 1550.55, 319.787)" fill="#fff"/><path d="M5.12,6.407C2.224,6.342,0,5.96,0,5.5s2.224-.842,5.12-.907C5.2,1.987,5.621,0,6.128,0s.928,1.99,1.008,4.6C9.906,4.681,12,5.053,12,5.5s-2.094.819-4.865.9c-.08,2.609-.5,4.6-1.008,4.6S5.2,9.013,5.12,6.407Z" transform="translate(1835.674 550.807) rotate(163)" fill="#fff"/><path d="M5.12,6.407C2.224,6.342,0,5.96,0,5.5s2.224-.842,5.12-.907C5.2,1.987,5.621,0,6.128,0s.928,1.99,1.008,4.6C9.906,4.681,12,5.053,12,5.5s-2.094.819-4.865.9c-.08,2.609-.5,4.6-1.008,4.6S5.2,9.013,5.12,6.407Z" transform="translate(1089.674 341.807) rotate(163)" fill="#fff"/><path d="M5.12,6.407C2.224,6.342,0,5.96,0,5.5s2.224-.842,5.12-.907C5.2,1.987,5.621,0,6.128,0s.928,1.99,1.008,4.6C9.906,4.681,12,5.053,12,5.5s-2.094.819-4.865.9c-.08,2.609-.5,4.6-1.008,4.6S5.2,9.013,5.12,6.407Z" transform="matrix(0.891, 0.454, -0.454, 0.891, 1314.684, 338.09)" fill="#fff"/><path d="M5.12,6.407C2.224,6.342,0,5.96,0,5.5s2.224-.842,5.12-.907C5.2,1.987,5.621,0,6.128,0s.928,1.99,1.008,4.6C9.906,4.681,12,5.053,12,5.5s-2.094.819-4.865.9c-.08,2.609-.5,4.6-1.008,4.6S5.2,9.013,5.12,6.407Z" transform="matrix(0.891, 0.454, -0.454, 0.891, 941.684, 231.09)" fill="#fff"/></svg>