<svg xmlns="http://www.w3.org/2000/svg" width="1600.992" height="553.191" viewBox="0 0 1600.992 553.191"><g transform="translate(-266 -642)"><g transform="translate(-67.318 592)"><g transform="translate(333 50)"><path d="M2.56,3.495C1.112,3.459,0,3.251,0,3s1.112-.459,2.56-.495C2.6,1.084,2.81,0,3.064,0s.464,1.086.5,2.509C4.953,2.553,6,2.756,6,3s-1.047.447-2.432.491C3.528,4.914,3.317,6,3.064,6S2.6,4.916,2.56,3.495Z" transform="translate(77.318 17)" fill="#fff"/><path d="M2.56,3.495C1.112,3.459,0,3.251,0,3s1.112-.459,2.56-.495C2.6,1.084,2.81,0,3.064,0s.464,1.086.5,2.509C4.953,2.553,6,2.756,6,3s-1.047.447-2.432.491C3.528,4.914,3.317,6,3.064,6S2.6,4.916,2.56,3.495Z" transform="translate(54.318 87)" fill="#fff"/><g transform="translate(0.318 0)"><path d="M2.56,3.495C1.112,3.459,0,3.251,0,3s1.112-.459,2.56-.495C2.6,1.084,2.81,0,3.064,0s.464,1.086.5,2.509C4.953,2.553,6,2.756,6,3s-1.047.447-2.432.491C3.528,4.914,3.317,6,3.064,6S2.6,4.916,2.56,3.495Z" transform="translate(0 0)" fill="#fff"/></g><g transform="translate(147.804 22.886)"><path d="M2.751,3.442C1.195,3.407,0,3.2,0,2.955S1.195,2.5,2.751,2.468C2.794,1.067,3.02,0,3.292,0s.5,1.069.541,2.471c1.489.044,2.613.244,2.613.484s-1.125.44-2.613.484c-.043,1.4-.269,2.471-.541,2.471S2.794,4.842,2.751,3.442Z" transform="translate(528.985 62.274) rotate(163)" fill="#fff"/><path d="M2.751,3.442C1.195,3.407,0,3.2,0,2.955S1.195,2.5,2.751,2.468C2.794,1.067,3.02,0,3.292,0s.5,1.069.541,2.471c1.489.044,2.613.244,2.613.484s-1.125.44-2.613.484c-.043,1.4-.269,2.471-.541,2.471S2.794,4.842,2.751,3.442Z" transform="matrix(0.891, 0.454, -0.454, 0.891, 611.687, 162.786)" fill="#fff"/><path d="M2.751,3.442C1.195,3.407,0,3.2,0,2.955S1.195,2.5,2.751,2.468C2.794,1.067,3.02,0,3.292,0s.5,1.069.541,2.471c1.489.044,2.613.244,2.613.484s-1.125.44-2.613.484c-.043,1.4-.269,2.471-.541,2.471S2.794,4.842,2.751,3.442Z" transform="matrix(0.891, 0.454, -0.454, 0.891, 291.487, 56.411)" fill="#fff"/><path d="M2.751,3.442C1.195,3.407,0,3.2,0,2.955S1.195,2.5,2.751,2.468C2.794,1.067,3.02,0,3.292,0s.5,1.069.541,2.471c1.489.044,2.613.244,2.613.484s-1.125.44-2.613.484c-.043,1.4-.269,2.471-.541,2.471S2.794,4.842,2.751,3.442Z" transform="matrix(0.891, 0.454, -0.454, 0.891, 225.942, 0)" fill="#fff"/><path d="M2.751,3.442C1.195,3.407,0,3.2,0,2.955S1.195,2.5,2.751,2.468C2.794,1.067,3.02,0,3.292,0s.5,1.069.541,2.471c1.489.044,2.613.244,2.613.484s-1.125.44-2.613.484c-.043,1.4-.269,2.471-.541,2.471S2.794,4.842,2.751,3.442Z" transform="translate(440.915 93.948) rotate(163)" fill="#fff"/><path d="M2.751,3.442C1.195,3.407,0,3.2,0,2.955S1.195,2.5,2.751,2.468C2.794,1.067,3.02,0,3.292,0s.5,1.069.541,2.471c1.489.044,2.613.244,2.613.484s-1.125.44-2.613.484c-.043,1.4-.269,2.471-.541,2.471S2.794,4.842,2.751,3.442Z" transform="translate(336.689 97.708) rotate(163)" fill="#fff"/><path d="M2.751,3.442C1.195,3.407,0,3.2,0,2.955S1.195,2.5,2.751,2.468C2.794,1.067,3.02,0,3.292,0s.5,1.069.541,2.471c1.489.044,2.613.244,2.613.484s-1.125.44-2.613.484c-.043,1.4-.269,2.471-.541,2.471S2.794,4.842,2.751,3.442Z" transform="translate(7.893 49.356) rotate(163)" fill="#fff"/><path d="M2.751,3.442C1.195,3.407,0,3.2,0,2.955S1.195,2.5,2.751,2.468C2.794,1.067,3.02,0,3.292,0s.5,1.069.541,2.471c1.489.044,2.613.244,2.613.484s-1.125.44-2.613.484c-.043,1.4-.269,2.471-.541,2.471S2.794,4.842,2.751,3.442Z" transform="matrix(0.891, 0.454, -0.454, 0.891, 635.263, 84.45)" fill="#fff"/><path d="M2.751,3.442C1.195,3.407,0,3.2,0,2.955S1.195,2.5,2.751,2.468C2.794,1.067,3.02,0,3.292,0s.5,1.069.541,2.471c1.489.044,2.613.244,2.613.484s-1.125.44-2.613.484c-.043,1.4-.269,2.471-.541,2.471S2.794,4.842,2.751,3.442Z" transform="matrix(0.891, 0.454, -0.454, 0.891, 506.324, 127.429)" fill="#fff"/><path d="M2.751,3.442C1.195,3.407,0,3.2,0,2.955S1.195,2.5,2.751,2.468C2.794,1.067,3.02,0,3.292,0s.5,1.069.541,2.471c1.489.044,2.613.244,2.613.484s-1.125.44-2.613.484c-.043,1.4-.269,2.471-.541,2.471S2.794,4.842,2.751,3.442Z" transform="translate(659.506 251.544) rotate(163)" fill="#fff"/><path d="M2.751,3.442C1.195,3.407,0,3.2,0,2.955S1.195,2.5,2.751,2.468C2.794,1.067,3.02,0,3.292,0s.5,1.069.541,2.471c1.489.044,2.613.244,2.613.484s-1.125.44-2.613.484c-.043,1.4-.269,2.471-.541,2.471S2.794,4.842,2.751,3.442Z" transform="translate(258.719 139.259) rotate(163)" fill="#fff"/><path d="M2.751,3.442C1.195,3.407,0,3.2,0,2.955S1.195,2.5,2.751,2.468C2.794,1.067,3.02,0,3.292,0s.5,1.069.541,2.471c1.489.044,2.613.244,2.613.484s-1.125.44-2.613.484c-.043,1.4-.269,2.471-.541,2.471S2.794,4.842,2.751,3.442Z" transform="matrix(0.891, 0.454, -0.454, 0.891, 379.604, 137.263)" fill="#fff"/><path d="M2.751,3.442C1.195,3.407,0,3.2,0,2.955S1.195,2.5,2.751,2.468C2.794,1.067,3.02,0,3.292,0s.5,1.069.541,2.471c1.489.044,2.613.244,2.613.484s-1.125.44-2.613.484c-.043,1.4-.269,2.471-.541,2.471S2.794,4.842,2.751,3.442Z" transform="matrix(0.891, 0.454, -0.454, 0.891, 179.211, 79.777)" fill="#fff"/></g></g><path d="M2.751,3.442C1.195,3.407,0,3.2,0,2.955S1.195,2.5,2.751,2.468C2.794,1.067,3.02,0,3.292,0s.5,1.069.541,2.471c1.489.044,2.613.244,2.613.484s-1.125.44-2.613.484c-.043,1.4-.269,2.471-.541,2.471S2.794,4.842,2.751,3.442Z" transform="translate(616.025 80.874) rotate(163)" fill="#fff"/></g><g transform="translate(726.682 639)"><g transform="translate(333.318 50)"><path d="M2.56,3.495C1.112,3.459,0,3.251,0,3s1.112-.459,2.56-.495C2.6,1.084,2.81,0,3.064,0s.464,1.086.5,2.509C4.953,2.553,6,2.756,6,3s-1.047.447-2.432.491C3.528,4.914,3.317,6,3.064,6S2.6,4.916,2.56,3.495Z" transform="translate(77 17)" fill="#fff"/><path d="M2.56,3.495C1.112,3.459,0,3.251,0,3s1.112-.459,2.56-.495C2.6,1.084,2.81,0,3.064,0s.464,1.086.5,2.509C4.953,2.553,6,2.756,6,3s-1.047.447-2.432.491C3.528,4.914,3.317,6,3.064,6S2.6,4.916,2.56,3.495Z" transform="translate(54 161)" fill="#fff"/><g transform="translate(0 0)"><path d="M2.56,3.495C1.112,3.459,0,3.251,0,3s1.112-.459,2.56-.495C2.6,1.084,2.81,0,3.064,0s.464,1.086.5,2.509C4.953,2.553,6,2.756,6,3s-1.047.447-2.432.491C3.528,4.914,3.317,6,3.064,6S2.6,4.916,2.56,3.495Z" transform="translate(0 0)" fill="#fff"/></g><g transform="translate(147.486 22.886)"><path d="M2.751,3.442C1.195,3.407,0,3.2,0,2.955S1.195,2.5,2.751,2.468C2.794,1.067,3.02,0,3.292,0s.5,1.069.541,2.471c1.489.044,2.613.244,2.613.484s-1.125.44-2.613.484c-.043,1.4-.269,2.471-.541,2.471S2.794,4.842,2.751,3.442Z" transform="translate(528.985 115.208) rotate(163)" fill="#fff"/><path d="M2.751,3.442C1.195,3.407,0,3.2,0,2.955S1.195,2.5,2.751,2.468C2.794,1.067,3.02,0,3.292,0s.5,1.069.541,2.471c1.489.044,2.613.244,2.613.484s-1.125.44-2.613.484c-.043,1.4-.269,2.471-.541,2.471S2.794,4.842,2.751,3.442Z" transform="matrix(0.891, 0.454, -0.454, 0.891, 611.687, 315.376)" fill="#fff"/><path d="M2.751,3.442C1.195,3.407,0,3.2,0,2.955S1.195,2.5,2.751,2.468C2.794,1.067,3.02,0,3.292,0s.5,1.069.541,2.471c1.489.044,2.613.244,2.613.484s-1.125.44-2.613.484c-.043,1.4-.269,2.471-.541,2.471S2.794,4.842,2.751,3.442Z" transform="matrix(0.891, 0.454, -0.454, 0.891, 291.487, 109.289)" fill="#fff"/><path d="M2.751,3.442C1.195,3.407,0,3.2,0,2.955S1.195,2.5,2.751,2.468C2.794,1.067,3.02,0,3.292,0s.5,1.069.541,2.471c1.489.044,2.613.244,2.613.484s-1.125.44-2.613.484c-.043,1.4-.269,2.471-.541,2.471S2.794,4.842,2.751,3.442Z" transform="matrix(0.891, 0.454, -0.454, 0.891, 225.942, 0)" fill="#fff"/><path d="M2.751,3.442C1.195,3.407,0,3.2,0,2.955S1.195,2.5,2.751,2.468C2.794,1.067,3.02,0,3.292,0s.5,1.069.541,2.471c1.489.044,2.613.244,2.613.484s-1.125.44-2.613.484c-.043,1.4-.269,2.471-.541,2.471S2.794,4.842,2.751,3.442Z" transform="translate(440.915 176.493) rotate(163)" fill="#fff"/><path d="M2.751,3.442C1.195,3.407,0,3.2,0,2.955S1.195,2.5,2.751,2.468C2.794,1.067,3.02,0,3.292,0s.5,1.069.541,2.471c1.489.044,2.613.244,2.613.484s-1.125.44-2.613.484c-.043,1.4-.269,2.471-.541,2.471S2.794,4.842,2.751,3.442Z" transform="translate(336.689 183.769) rotate(163)" fill="#fff"/><path d="M2.751,3.442C1.195,3.407,0,3.2,0,2.955S1.195,2.5,2.751,2.468C2.794,1.067,3.02,0,3.292,0s.5,1.069.541,2.471c1.489.044,2.613.244,2.613.484s-1.125.44-2.613.484c-.043,1.4-.269,2.471-.541,2.471S2.794,4.842,2.751,3.442Z" transform="translate(7.893 90.214) rotate(163)" fill="#fff"/><path d="M2.751,3.442C1.195,3.407,0,3.2,0,2.955S1.195,2.5,2.751,2.468C2.794,1.067,3.02,0,3.292,0s.5,1.069.541,2.471c1.489.044,2.613.244,2.613.484s-1.125.44-2.613.484c-.043,1.4-.269,2.471-.541,2.471S2.794,4.842,2.751,3.442Z" transform="matrix(0.891, 0.454, -0.454, 0.891, 635.263, 163.61)" fill="#fff"/><path d="M2.751,3.442C1.195,3.407,0,3.2,0,2.955S1.195,2.5,2.751,2.468C2.794,1.067,3.02,0,3.292,0s.5,1.069.541,2.471c1.489.044,2.613.244,2.613.484s-1.125.44-2.613.484c-.043,1.4-.269,2.471-.541,2.471S2.794,4.842,2.751,3.442Z" transform="matrix(0.891, 0.454, -0.454, 0.891, 506.324, 246.877)" fill="#fff"/><path d="M2.751,3.442C1.195,3.407,0,3.2,0,2.955S1.195,2.5,2.751,2.468C2.794,1.067,3.02,0,3.292,0s.5,1.069.541,2.471c1.489.044,2.613.244,2.613.484s-1.125.44-2.613.484c-.043,1.4-.269,2.471-.541,2.471S2.794,4.842,2.751,3.442Z" transform="translate(659.506 481.421) rotate(163)" fill="#fff"/><path d="M2.751,3.442C1.195,3.407,0,3.2,0,2.955S1.195,2.5,2.751,2.468C2.794,1.067,3.02,0,3.292,0s.5,1.069.541,2.471c1.489.044,2.613.244,2.613.484s-1.125.44-2.613.484c-.043,1.4-.269,2.471-.541,2.471S2.794,4.842,2.751,3.442Z" transform="translate(258.719 264.165) rotate(163)" fill="#fff"/><path d="M2.751,3.442C1.195,3.407,0,3.2,0,2.955S1.195,2.5,2.751,2.468C2.794,1.067,3.02,0,3.292,0s.5,1.069.541,2.471c1.489.044,2.613.244,2.613.484s-1.125.44-2.613.484c-.043,1.4-.269,2.471-.541,2.471S2.794,4.842,2.751,3.442Z" transform="matrix(0.891, 0.454, -0.454, 0.891, 379.604, 265.928)" fill="#fff"/><path d="M2.751,3.442C1.195,3.407,0,3.2,0,2.955S1.195,2.5,2.751,2.468C2.794,1.067,3.02,0,3.292,0s.5,1.069.541,2.471c1.489.044,2.613.244,2.613.484s-1.125.44-2.613.484c-.043,1.4-.269,2.471-.541,2.471S2.794,4.842,2.751,3.442Z" transform="matrix(0.891, 0.454, -0.454, 0.891, 179.211, 154.557)" fill="#fff"/></g></g><path d="M2.751,3.442C1.195,3.407,0,3.2,0,2.955S1.195,2.5,2.751,2.468C2.794,1.067,3.02,0,3.292,0s.5,1.069.541,2.471c1.489.044,2.613.244,2.613.484s-1.125.44-2.613.484c-.043,1.4-.269,2.471-.541,2.471S2.794,4.842,2.751,3.442Z" transform="translate(616.025 80.874) rotate(163)" fill="#fff"/></g></g></svg>